<svg xmlns="http://www.w3.org/2000/svg" width="2000" height="2000">
<path fill="rgba(251, 226, 0, 255)"
d="
M 0, 300
L 774, 300
L 774, 600
L 0, 600
L 0, 300
"/>
<path fill="rgba(0, 209, 255, 255)"
d="
M 0, 0
L 774, 0
L 774, 300
L 0, 300
L 0, 0
"/>
<path fill="rgba(250, 255, 0, 255)"
d="
M 665, 94
a 50, 50 0 1,0 1,0
"/>
<path fill="rgba(8, 45, 234, 255)"
 stroke-width="10" stroke="rgba(66, 255, 0, 255)"
d="
M 535.5, 479
a 123.5, 56 0 1,0 1,0
"/>
<path fill="rgba(255, 0, 0, 255)"
 stroke-width="2" stroke="rgba(0, 0, 0, 0)"
d="
M 99, 434
L 258, 434
L 258, 547
L 99, 547
L 99, 434
"/>
<path fill="rgba(0, 0, 0, 255)"
d="
M 201, 323
L 226, 323
L 226, 411
L 201, 411
L 201, 323
"/>
<path fill="rgba(82, 204, 51, 255)"
 stroke-width="5" stroke="rgba(0, 0, 0, 255)"
d="
M 150, 359
L 300, 434
L 58, 434
L 150, 359
"/>
</svg>
